PathFileType	4	(X/Y/Z)	/tmp/tmp5iqdz_vd/results/MarkerData/markers_smpl.trc
DataRate	CameraRate	NumFrames	NumMarkers	Units	OrigDataRate	OrigDataStartFrame	OrigNumFrames
120	120	5	41	m	120	522	597
Frame#	Time	C7			CLAV			LANK			LBHD			LBWT			LELB			LFHD			LFIN			LFRM			LFWT			LHEE			LKNE			LMT5			LSHN			LSHO			LTHI			LTOE			LUPA			LWRA			LWRB			RANK			RBAC			RBHD			RBWT			RELB			RFHD			RFIN			RFRM			RFWT			RHEE			RKNE			RMT5			RSHN			RSHO			RTHI			RTOE			RUPA			RWRA			RWRB			STRN			T10		
		X1	Y1	Z1	X2	Y2	Z2	X3	Y3	Z3	X4	Y4	Z4	X5	Y5	Z5	X6	Y6	Z6	X7	Y7	Z7	X8	Y8	Z8	X9	Y9	Z9	X10	Y10	Z10	X11	Y11	Z11	X12	Y12	Z12	X13	Y13	Z13	X14	Y14	Z14	X15	Y15	Z15	X16	Y16	Z16	X17	Y17	Z17	X18	Y18	Z18	X19	Y19	Z19	X20	Y20	Z20	X21	Y21	Z21	X22	Y22	Z22	X23	Y23	Z23	X24	Y24	Z24	X25	Y25	Z25	X26	Y26	Z26	X27	Y27	Z27	X28	Y28	Z28	X29	Y29	Z29	X30	Y30	Z30	X31	Y31	Z31	X32	Y32	Z32	X33	Y33	Z33	X34	Y34	Z34	X35	Y35	Z35	X36	Y36	Z36	X37	Y37	Z37	X38	Y38	Z38	X39	Y39	Z39	X40	Y40	Z40	X41	Y41	Z41

523	4.35	0.638581	1.50739	-0.259653	0.706683	1.44023	-0.357371	0.565349	0.102878	-0.189145	0.763055	1.62169	-0.409973	0.574625	0.98794	-0.205936	0.287505	1.31734	-0.420668	0.886726	1.61776	-0.384087	0.186227	1.25451	-0.766983	0.225488	1.27892	-0.502601	0.590064	0.996564	-0.409312	0.576632	0.0888178	-0.140105	0.577803	0.498622	-0.384202	0.637001	0.0292371	-0.312106	0.549557	0.36337	-0.325809	0.532013	1.50531	-0.353447	0.525553	0.735349	-0.381965	0.709433	0.0202575	-0.356407	0.364303	1.37078	-0.398203	0.245924	1.24559	-0.713446	0.183712	1.24477	-0.658388	0.826254	0.0961928	-0.496649	0.673189	1.41326	-0.174447	0.715558	1.64533	-0.305371	0.686895	0.989356	-0.172207	0.895559	1.14009	-0.12284	0.829094	1.64049	-0.259722	1.09474	1.07493	-0.394587	0.979523	1.08416	-0.230953	0.795355	1.0316	-0.329632	0.788738	0.049382	-0.445605	0.823295	0.506401	-0.430705	0.85328	0.0276136	-0.623885	0.847039	0.309138	-0.457483	0.786477	1.46603	-0.181279	0.823658	0.664677	-0.349559	0.801273	0.0255327	-0.71095	0.840919	1.34267	-0.12501	1.01667	1.13172	-0.380764	1.03709	1.07298	-0.314461	0.695396	1.26658	-0.404319	0.621617	1.26126	-0.208642
524	4.35833	0.640993	1.50728	-0.260915	0.708825	1.44012	-0.358769	0.566056	0.10264	-0.18896	0.765456	1.62157	-0.411334	0.576373	0.987958	-0.207345	0.287344	1.31941	-0.416484	0.889082	1.6177	-0.385088	0.178614	1.25622	-0.760403	0.223676	1.28123	-0.497145	0.592223	0.996539	-0.41067	0.57722	0.0887194	-0.139834	0.578927	0.498381	-0.384184	0.637913	0.0286068	-0.311618	0.550547	0.363121	-0.325784	0.534222	1.50527	-0.354246	0.527143	0.735247	-0.38286	0.710325	0.0196382	-0.355873	0.365006	1.37212	-0.395749	0.239903	1.24723	-0.708658	0.17919	1.24662	-0.651913	0.826807	0.0952901	-0.496365	0.675868	1.41319	-0.175722	0.717679	1.6451	-0.306788	0.688555	0.989235	-0.173315	0.894711	1.13864	-0.125629	0.831123	1.64028	-0.260897	1.08833	1.07057	-0.400897	0.976366	1.08179	-0.235122	0.79734	1.0313	-0.330519	0.789214	0.048384	-0.445478	0.82427	0.505462	-0.430252	0.853801	0.0270767	-0.623828	0.84779	0.30819	-0.457052	0.789524	1.46565	-0.182834	0.824842	0.663975	-0.349553	0.801695	0.0252789	-0.710891	0.843182	1.34169	-0.126791	1.01159	1.12878	-0.385678	1.03235	1.0699	-0.319565	0.697588	1.26644	-0.405621	0.62398	1.26117	-0.209788
525	4.36667	0.643442	1.50735	-0.262182	0.710691	1.44013	-0.360329	0.56641	0.102679	-0.188936	0.768294	1.62138	-0.412807	0.578053	0.988147	-0.208759	0.288223	1.31974	-0.412787	0.891822	1.61729	-0.386033	0.171268	1.25824	-0.754269	0.222757	1.28214	-0.492089	0.594173	0.996509	-0.412043	0.577531	0.0888349	-0.139758	0.580033	0.498283	-0.384443	0.638198	0.028337	-0.311455	0.551426	0.363098	-0.326003	0.535934	1.50545	-0.354339	0.528489	0.735176	-0.383707	0.71056	0.0192771	-0.355742	0.366123	1.37234	-0.393358	0.233877	1.24889	-0.704189	0.174657	1.24838	-0.645864	0.82723	0.0944468	-0.496352	0.678605	1.41312	-0.177097	0.720148	1.64495	-0.308404	0.690175	0.989228	-0.174534	0.893714	1.13692	-0.128484	0.833387	1.63991	-0.262087	1.08233	1.06588	-0.406736	0.973322	1.07907	-0.238981	0.79927	1.03103	-0.331571	0.789572	0.0473402	-0.445648	0.824892	0.504598	-0.430167	0.854315	0.0267916	-0.624056	0.848321	0.307313	-0.456978	0.792616	1.46506	-0.184605	0.825772	0.663288	-0.349822	0.802222	0.0253989	-0.71116	0.845352	1.34042	-0.128938	1.00664	1.12508	-0.3902	1.02807	1.06639	-0.32413	0.699294	1.26639	-0.40715	0.626047	1.26119	-0.211104
526	4.375	0.646438	1.50722	-0.26333	0.713348	1.43999	-0.361602	0.566787	0.102907	-0.188682	0.771197	1.62111	-0.414092	0.579495	0.988178	-0.210057	0.291123	1.31943	-0.410113	0.894711	1.61706	-0.387123	0.162922	1.26059	-0.747847	0.223215	1.28237	-0.487394	0.595801	0.996377	-0.413291	0.577995	0.089076	-0.139505	0.581114	0.498147	-0.384803	0.637996	0.0282235	-0.311359	0.552286	0.363207	-0.326039	0.538923	1.50604	-0.354753	0.529714	0.734992	-0.384563	0.710234	0.0188859	-0.355792	0.368977	1.37225	-0.391872	0.227098	1.25072	-0.699903	0.16985	1.24993	-0.639638	0.827561	0.0937179	-0.496535	0.681561	1.41288	-0.178363	0.722914	1.64476	-0.309723	0.691542	0.989078	-0.17565	0.893089	1.13551	-0.131456	0.836104	1.63977	-0.263258	1.07711	1.06107	-0.412133	0.970785	1.07636	-0.242682	0.800837	1.03051	-0.332556	0.789794	0.0464955	-0.446033	0.825873	0.503852	-0.43027	0.854533	0.026518	-0.624564	0.848972	0.30651	-0.457	0.795811	1.46462	-0.186139	0.826852	0.662728	-0.350205	0.802231	0.0254591	-0.711597	0.847665	1.33947	-0.13087	1.00238	1.12112	-0.394427	1.02441	1.06265	-0.328426	0.701494	1.26618	-0.408619	0.62837	1.26112	-0.212414
527	4.38333	0.64916	1.50711	-0.264621	0.71578	1.43977	-0.362948	0.567328	0.103078	-0.188361	0.774223	1.62086	-0.415286	0.581275	0.988132	-0.211034	0.293628	1.31916	-0.407466	0.897648	1.61679	-0.387867	0.154849	1.26248	-0.741409	0.223455	1.28253	-0.482778	0.597557	0.996105	-0.414228	0.578692	0.0892589	-0.139205	0.581956	0.498001	-0.385188	0.637861	0.0281612	-0.311293	0.552994	0.363235	-0.326035	0.541631	1.50651	-0.355206	0.53108	0.734892	-0.385257	0.709955	0.0186495	-0.355941	0.371508	1.37217	-0.390394	0.220453	1.25248	-0.695471	0.165125	1.25136	-0.63342	0.82804	0.0930903	-0.496832	0.684115	1.41263	-0.179669	0.725581	1.64447	-0.311043	0.693294	0.988998	-0.176581	0.892527	1.13411	-0.134162	0.838603	1.63945	-0.264184	1.07196	1.05579	-0.416998	0.968313	1.07356	-0.246034	0.802563	1.03017	-0.333523	0.790225	0.045732	-0.446486	0.827034	0.503202	-0.43038	0.854789	0.0263665	-0.625204	0.849793	0.305804	-0.457112	0.798559	1.4641	-0.187519	0.828248	0.662248	-0.350577	0.802228	0.025624	-0.712126	0.849585	1.3385	-0.132573	0.998515	1.11707	-0.39829	1.02079	1.05874	-0.332315	0.703343	1.26587	-0.410021	0.63049	1.26107	-0.213655
